HIERARCHY
ROOT Hips
{
	OFFSET -0.179506 -22.333345 2.821913
	CHANNELS 6 Xposition Yposition Zposition Zrotation Yrotation Xrotation 
	JOINT LeftUpLeg
	{
		OFFSET 6.951974 -9.140623 -0.681533
		CHANNELS 3 Zrotation Yrotation Xrotation
		JOINT LeftLeg
		{
			OFFSET 3.427654 -37.519855 -0.449580
			CHANNELS 3 Zrotation Yrotation Xrotation
			JOINT LeftFoot
			{
				OFFSET -1.359570 -39.796059 -4.369333
				CHANNELS 3 Zrotation Yrotation Xrotation
				JOINT LeftToe
				{
					OFFSET 2.635814 -5.579078 11.928840
					CHANNELS 3 Zrotation Yrotation Xrotation
					End Site
					{
						OFFSET 0.000000 0.000000 0.000000
					}
				}
			}
		}
	}
	JOINT RightUpLeg
	{
		OFFSET -6.767048 -9.052170 -0.431982
		CHANNELS 3 Zrotation Yrotation Xrotation
		JOINT RightLeg
		{
			OFFSET -3.829005 -38.256897 -0.885003
			CHANNELS 3 Zrotation Yrotation Xrotation
			JOINT RightFoot
			{
				OFFSET 1.577377 -39.841461 -4.231180
				CHANNELS 3 Zrotation Yrotation Xrotation
				JOINT RightToe
				{
					OFFSET -2.537174 -4.814398 12.334795
					CHANNELS 3 Zrotation Yrotation Xrotation
					End Site
					{
						OFFSET 0.000000 0.000000 0.000000
					}
				}
			}
		}
	}
	JOINT Spine
	{
		OFFSET -0.253288 10.896323 -2.669631
		CHANNELS 3 Zrotation Yrotation Xrotation
		JOINT Spine1
		{
			OFFSET 0.548704 13.518043 0.109247
			CHANNELS 3 Zrotation Yrotation Xrotation
			JOINT Spine2
			{
				OFFSET 0.145701 5.292222 2.542457
				CHANNELS 3 Zrotation Yrotation Xrotation
				JOINT Neck
				{
					OFFSET -0.277840 21.387037 -4.285703
					CHANNELS 3 Zrotation Yrotation Xrotation
					JOINT Head
					{
						OFFSET 0.515184 6.496960 5.134897
						CHANNELS 3 Zrotation Yrotation Xrotation
						End Site
						{
							OFFSET 0.000000 0.000000 0.000000
						}
					}
				}
				JOINT LeftShoulder
				{
					OFFSET 7.884473 12.174932 -3.408961
					CHANNELS 3 Zrotation Yrotation Xrotation
					JOINT LeftArm
					{
						OFFSET 9.097692 3.046888 -0.886815
						CHANNELS 3 Zrotation Yrotation Xrotation
						JOINT LeftForeArm
						{
							OFFSET 25.961220 -1.277207 -2.745643
							CHANNELS 3 Zrotation Yrotation Xrotation
							JOINT LeftHand
							{
								OFFSET 24.923361 0.898606 -0.117091
								CHANNELS 3 Zrotation Yrotation Xrotation
								End Site
								{
									OFFSET 0.000000 0.000000 0.000000
								}
							}
						}
					}
				}
				JOINT RightShoulder
				{
					OFFSET -8.175920 11.883285 -3.861528
					CHANNELS 3 Zrotation Yrotation Xrotation
					JOINT RightArm
					{
						OFFSET -9.601238 3.255117 -0.914307
						CHANNELS 3 Zrotation Yrotation Xrotation
						JOINT RightForeArm
						{
							OFFSET -25.374195 -1.332924 -2.140099
							CHANNELS 3 Zrotation Yrotation Xrotation
							JOINT RightHand
							{
								OFFSET -25.529810 0.777228 -0.555919
								CHANNELS 3 Zrotation Yrotation Xrotation
								End Site
								{
									OFFSET 0.000000 0.000000 0.000000
								}
							}
						}
					}
				}
			}
		}
	}
}
MOTION
Frames: 13
Frame Time: 0.033333
-104.537560 215.766769 80.928604 46.274824 1.118849 85.280712 1.260440 6.256670 25.088797 -13.091783 -19.433814 29.690792 3.513045 9.583960 -40.512639 nan nan nan -2.114589 4.309548 -50.597513 6.791865 -7.899524 53.504273 9.248988 2.738275 0.477782 nan nan nan -0.459103 -11.177982 35.510465 0.589119 -0.606732 -0.817697 3.469186 -7.174505 0.406172 -2.883987 5.023332 -20.426795 4.282580 5.945363 -16.178556 -20.796673 -9.674951 -0.472170 -39.437570 -10.655867 4.880866 153.706199 -69.121364 -128.807228 -19.401268 -17.704244 -10.406299 16.251504 0.732495 -4.237110 42.887918 -13.236289 13.731206 40.931888 81.777606 67.366740 21.511343 4.553661 -2.248071 
-105.434975 216.319687 81.012497 45.604369 0.896270 84.811509 1.219158 6.789600 24.288006 -12.848474 -17.749507 30.694475 3.890052 8.649602 -41.030810 nan nan nan -1.857279 4.766771 -50.255369 5.815025 -7.886489 52.697628 9.349332 2.923196 0.261029 nan nan nan -0.870187 -10.715904 36.538172 0.285692 -0.379261 -0.482689 3.415152 -6.833037 -0.203591 -2.580327 4.966733 -19.908675 4.470650 5.712850 -16.909158 -21.485470 -8.920648 0.036842 -41.108441 -9.150313 5.280082 154.881247 -70.924748 -129.885532 -20.277570 -18.020066 -11.635396 16.619469 1.048293 -4.029946 44.133994 -11.789275 13.067277 30.101230 82.892560 57.415869 21.149369 3.926191 -1.102176 
-106.788315 216.712555 81.259781 45.541639 1.282582 84.996496 2.235658 6.326716 22.076113 -13.242184 -15.645140 32.533467 4.176334 7.259682 -41.648493 nan nan nan -1.282579 5.849812 -50.200439 5.158014 -8.136581 50.713526 8.901562 2.169581 0.223688 nan nan nan -1.418894 -10.281690 38.141665 0.318896 -0.214107 -1.271572 3.935161 -6.603967 -1.051427 -2.348375 5.501876 -18.827738 4.723778 5.203030 -18.029961 -22.182275 -8.127803 0.381542 -42.125120 -7.072751 5.444476 157.041859 -72.764860 -132.311305 -20.942267 -18.024586 -12.931871 17.471419 1.476306 -3.261968 44.960249 -10.351440 12.092379 19.395679 83.927599 46.651902 19.202239 3.510990 -1.151465 
-107.513184 217.113953 81.356476 45.587640 1.120879 84.978618 2.023950 6.142058 21.031996 -13.025706 -14.773273 33.252514 4.403845 6.661507 -42.101814 nan nan nan -1.326802 5.580523 -50.113529 4.760843 -8.307181 49.896030 8.798977 2.553732 -0.586873 nan nan nan -1.332670 -9.991309 38.362236 0.119308 -0.504009 -1.055086 3.787266 -6.351066 -1.498059 -2.056806 5.426195 -17.963759 4.788386 4.896341 -18.992998 -23.053487 -7.350758 0.648044 -42.851172 -5.130123 5.867896 159.632571 -74.706628 -135.179870 -21.358706 -17.509559 -12.450350 18.135277 1.651507 -3.148470 45.588039 -9.277056 11.445797 8.506104 84.843734 34.774902 16.654080 3.103665 -0.370452 
-108.310387 217.533417 81.450798 44.815727 0.981549 84.500769 1.957521 6.603265 20.745058 -13.014199 -14.296036 33.632496 4.401048 6.416824 -42.446665 nan nan nan -1.046621 6.275889 -49.807258 4.350045 -8.130099 49.433984 9.282577 2.474812 -1.359918 nan nan nan -1.770710 -9.439384 39.327468 -0.177542 -0.039423 -1.418965 3.699081 -6.080741 -1.258292 -1.516100 5.451582 -18.036676 4.683166 4.398100 -19.227629 -23.275163 -6.573301 0.765036 -43.771378 -3.506762 6.555354 161.570661 -76.514531 -136.976159 -20.925610 -17.022269 -12.011473 18.212400 1.848551 -3.690805 46.669650 -8.561703 11.611180 -10.502115 85.523585 15.242577 14.161788 3.137524 0.020067 
-108.953262 217.987076 81.479713 44.416780 0.897487 84.278771 1.767590 6.758953 20.105061 -12.864319 -13.663222 34.157485 4.630852 6.292711 -42.722103 nan nan nan -1.075643 6.556928 -49.793526 4.132314 -8.287279 49.145063 9.644252 2.539807 -2.086513 nan nan nan -1.782539 -9.078619 39.370848 -0.285796 0.108364 -1.126483 3.422945 -5.772901 -1.155648 -1.125567 5.275013 -17.788875 4.592924 4.214873 -19.578351 -23.377004 -5.913464 1.175723 -44.844229 -1.994985 7.144865 162.573245 -78.058250 -138.002846 -20.521427 -16.355449 -11.767568 17.880902 1.968437 -3.895040 47.926601 -8.033312 11.764505 -41.413998 85.651502 -16.353415 12.930699 3.236042 -0.587801 
-109.493134 218.440750 81.494278 44.102624 0.693926 84.099814 1.400187 7.010438 19.422929 -12.689837 -13.155556 34.732133 4.804101 6.357712 -42.862568 nan nan nan -1.228113 6.556553 -49.877823 4.009453 -8.375921 49.115008 9.499119 2.750101 -2.973645 nan nan nan -1.678056 -8.865569 39.327158 -0.485934 0.128496 -1.228368 3.004741 -5.438492 -0.679119 -0.879413 5.481349 -17.914914 4.450102 3.734147 -19.348258 -23.311485 -5.066330 1.442364 -45.864238 -0.396393 7.581068 165.483021 -79.556781 -140.976270 -19.603970 -16.076539 -11.351845 17.759451 1.843653 -4.089631 48.478680 -6.916368 11.583359 -58.973170 85.519322 -34.799034 10.603474 3.345280 -0.963502 
-109.991371 218.875900 81.560982 43.524871 0.520750 83.601461 1.133341 7.506060 19.315745 -12.539273 -12.860437 35.016030 4.636329 6.452302 -42.851933 nan nan nan -1.202623 6.691546 -49.618387 3.697086 -8.495350 49.232925 9.622380 3.065906 -3.629109 nan nan nan -1.665142 -8.612683 39.794698 -0.846683 0.371732 -1.678266 2.712854 -5.164173 -0.022677 -0.601790 5.629746 -17.950144 4.285188 3.344935 -19.130107 -23.176457 -4.256577 1.643324 -46.878139 1.402311 7.919029 168.218768 -80.781867 -143.324047 -18.702749 -16.030578 -11.416705 17.279105 1.833548 -4.504364 49.297780 -6.407786 11.660193 -71.366102 85.334244 -48.340088 8.026571 3.659821 -3.767431 
-110.482697 219.268814 81.654488 43.013975 0.551802 83.056610 1.338816 8.137238 19.293830 -12.424804 -12.573981 35.362800 4.755215 6.387811 -42.988693 nan nan nan -0.930889 6.748599 -49.240967 3.378604 -8.621650 49.360710 9.957472 3.039477 -3.860292 nan nan nan -1.679188 -8.404257 40.139826 -1.022627 0.627452 -1.691465 2.516263 -4.836283 0.427122 -0.210059 5.367037 -17.975691 4.177483 3.392139 -19.030067 -23.060745 -3.554781 1.754696 -47.467674 3.364423 8.340886 171.841423 -81.528963 -146.890990 -17.755002 -15.758953 -11.681081 16.795212 2.095088 -4.950832 49.817685 -6.150937 11.679310 -86.554566 84.717079 -63.995060 7.909000 3.240404 -4.304247 
-110.959747 219.624634 81.773468 42.802904 0.535205 82.680596 1.450822 8.582830 19.023295 -12.077864 -12.123371 35.786309 4.950696 6.332389 -43.121039 nan nan nan -0.895786 6.610235 -49.014144 2.917189 -8.984213 49.669967 10.369890 2.938352 -3.772564 nan nan nan -1.689190 -8.212620 40.223622 -1.094860 0.776113 -1.581499 2.381238 -4.522280 0.717096 0.085388 5.018327 -17.759368 4.124667 3.403006 -19.043292 -22.877881 -2.830306 2.036559 -48.149670 5.227645 8.755787 174.787378 -82.010875 -150.160753 -16.782961 -15.585422 -11.583895 16.408115 2.095869 -5.288950 50.011518 -5.871501 11.665689 -101.029701 84.273752 -79.415343 8.380996 3.488248 -5.448714 
-111.458565 219.905655 81.948639 42.609755 0.434492 82.319251 1.554121 8.954986 18.780177 -11.899226 -11.751374 36.174898 5.047881 6.347572 -43.032631 nan nan nan -1.015053 6.689393 -48.732894 2.395154 -9.396301 50.077905 10.659273 2.508001 -3.517081 nan nan nan -1.785662 -7.848646 40.449151 -1.197410 0.984920 -1.738471 2.368632 -4.373321 0.991170 0.271943 4.787259 -17.243466 4.063373 3.280355 -19.359916 -22.704676 -1.824997 2.364380 -48.440718 6.914553 9.272744 -179.908288 -82.420434 -155.941074 -14.736724 -15.590707 -11.931139 15.894928 1.891851 -5.546372 50.131270 -6.145215 12.409753 -113.807154 84.100918 -94.443108 5.505839 3.877500 -11.110460 
-111.993576 220.138046 82.188118 42.445912 0.335214 81.965228 1.665018 9.080440 18.576070 -11.920631 -11.476816 36.509805 5.072959 6.476916 -42.887791 nan nan nan -1.035707 6.747062 -48.408749 2.007556 -9.571573 50.416388 10.543798 1.523767 -3.189321 nan nan nan -1.990575 -7.299195 40.708400 -1.171635 1.147216 -1.670351 2.463707 -4.200418 1.023729 0.449740 4.443263 -16.861358 3.990400 3.225846 -19.612716 -22.518337 -0.841702 2.711718 -48.354231 8.479865 9.514773 -171.328513 -82.541531 -164.748181 -13.604998 -15.807950 -13.375068 15.798648 1.705825 -5.795455 49.719959 -5.691102 12.335271 -124.681387 83.432632 -105.253805 5.227584 3.963008 -12.380798 
-112.508415 220.293777 82.492966 42.251858 0.090410 81.478700 1.667708 9.179029 18.721752 -12.103849 -11.571134 36.564782 4.128756 6.307494 -42.421984 nan nan nan -1.114427 6.778533 -47.935897 1.674802 -9.589170 50.929810 10.568829 0.607677 -2.910110 nan nan nan -2.330523 -6.570705 40.747841 -1.094934 1.283857 -0.821587 2.544274 -4.070263 0.698606 0.809742 4.091470 -16.617149 3.919858 3.112789 -19.932820 -22.289515 0.081651 2.861034 -47.936503 10.019875 9.811392 -163.348762 -82.299781 -173.402880 -13.727689 -16.037009 -14.987882 15.951230 1.602725 -6.152651 49.050338 -5.482190 12.355740 -130.800460 82.320827 -111.150177 7.296322 4.240802 -11.101712 
